<svg xmlns="http://www.w3.org/2000/svg" width="20" height="20" viewBox="0 0 20 20" fill="none">
  <mask id="mask0_0_1631" style="mask-type:alpha" maskUnits="userSpaceOnUse" x="0" y="0" width="20" height="20">
    <rect width="20" height="20" fill="#D9D9D9"/>
  </mask>
  <g mask="url(#mask0_0_1631)">
    <path d="M11.6296 12.3007C11.8657 12.3007 12.0636 12.2209 12.2233 12.0612C12.3831 11.9014 12.4629 11.7035 12.4629 11.4674C12.4629 11.2313 12.3831 11.0334 12.2233 10.8737C12.0636 10.7139 11.8657 10.6341 11.6296 10.6341C11.3935 10.6341 11.1956 10.7139 11.0358 10.8737C10.8761 11.0334 10.7963 11.2313 10.7963 11.4674C10.7963 11.7035 10.8761 11.9014 11.0358 12.0612C11.1956 12.2209 11.3935 12.3007 11.6296 12.3007ZM11.0254 9.84376H12.2338C12.2338 9.48085 12.2675 9.20926 12.335 9.02899C12.4024 8.84874 12.5512 8.65053 12.7813 8.43435C13.0696 8.15989 13.3292 7.88211 13.5601 7.60101C13.7909 7.31992 13.9063 6.96741 13.9063 6.54349C13.9063 5.91185 13.6961 5.40672 13.2756 5.0281C12.8551 4.64947 12.3013 4.46016 11.6141 4.46016C11.0834 4.46016 10.6096 4.60863 10.193 4.90557C9.77631 5.20253 9.48631 5.6105 9.32296 6.12947L10.4063 6.58018C10.5002 6.26737 10.6548 6.0268 10.8701 5.85847C11.0853 5.69015 11.3334 5.60599 11.6142 5.60599C11.9388 5.60599 12.2006 5.69544 12.3995 5.87432C12.5985 6.05323 12.698 6.28519 12.698 6.57022C12.698 6.86348 12.5903 7.11847 12.375 7.33518C12.1598 7.55189 11.9341 7.77244 11.698 7.99685C11.4123 8.26133 11.2288 8.51149 11.1475 8.7473C11.0661 8.98311 11.0254 9.3486 11.0254 9.84376ZM6.67442 15.0548C6.19549 15.0548 5.78756 14.8863 5.45063 14.5494C5.11371 14.2125 4.94525 13.8046 4.94525 13.3256V3.44522C4.94525 2.96629 5.11371 2.55836 5.45063 2.22143C5.78756 1.8845 6.19549 1.71603 6.67442 1.71603H16.5548C17.0338 1.71603 17.4417 1.8845 17.7786 2.22143C18.1156 2.55836 18.284 2.96629 18.284 3.44522V13.3256C18.284 13.8046 18.1156 14.2125 17.7786 14.5494C17.4417 14.8863 17.0338 15.0548 16.5548 15.0548H6.67442ZM6.67442 13.3256H16.5548V3.44522H6.67442V13.3256ZM3.44525 18.284C2.96632 18.284 2.55839 18.1155 2.22146 17.7786C1.88453 17.4417 1.71606 17.0337 1.71606 16.5548V4.94522H3.44525V16.5548H15.0548V18.284H3.44525Z" fill="#1C4980"/>
  </g>
</svg>