<svg width="20" height="20" viewBox="0 0 20 20" fill="none" xmlns="http://www.w3.org/2000/svg">
<g id="note_alt">
<mask id="mask0_0_1624" style="mask-type:alpha" maskUnits="userSpaceOnUse" x="0" y="0" width="20" height="20">
<rect id="Bounding box" width="20" height="20" fill="#D9D9D9"/>
</mask>
<g mask="url(#mask0_0_1624)">
<path id="note_alt_2" d="M6.00494 13.995H7.50494L12.4107 9.08925L10.9107 7.58925L6.00494 12.495V13.995ZM13.1191 8.38092L13.8691 7.63092C13.9802 7.51981 14.0357 7.40175 14.0357 7.27675C14.0357 7.15175 13.9802 7.0337 13.8691 6.92259L13.0774 6.13092C12.9663 6.01981 12.8482 5.96425 12.7232 5.96425C12.5982 5.96425 12.4802 6.01981 12.3691 6.13092L11.6191 6.88092L13.1191 8.38092ZM4.55975 17.1694C4.08423 17.1694 3.67715 17.0001 3.33852 16.6615C2.99989 16.3228 2.83057 15.9158 2.83057 15.4402V4.55981C2.83057 4.08429 2.99989 3.67721 3.33852 3.33858C3.67715 2.99995 4.08423 2.83063 4.55975 2.83063H7.95784C8.0922 2.39343 8.34477 2.03413 8.71555 1.75273C9.08631 1.47133 9.51445 1.33063 9.99996 1.33063C10.4855 1.33063 10.9136 1.47133 11.2844 1.75273C11.6552 2.03413 11.9077 2.39343 12.0421 2.83063H15.4402C15.9157 2.83063 16.3228 2.99995 16.6614 3.33858C17 3.67721 17.1694 4.08429 17.1694 4.55981V15.4402C17.1694 15.9158 17 16.3228 16.6614 16.6615C16.3228 17.0001 15.9157 17.1694 15.4402 17.1694H4.55975ZM4.55975 15.4402H15.4402V4.55981H4.55975V15.4402ZM9.99996 4.03988C10.1559 4.03988 10.2849 3.98889 10.3869 3.88692C10.4888 3.78495 10.5398 3.65598 10.5398 3.50002C10.5398 3.34406 10.4888 3.2151 10.3869 3.11313C10.2849 3.01116 10.1559 2.96017 9.99996 2.96017C9.844 2.96017 9.71504 3.01116 9.61307 3.11313C9.51109 3.2151 9.46011 3.34406 9.46011 3.50002C9.46011 3.65598 9.51109 3.78495 9.61307 3.88692C9.71504 3.98889 9.844 4.03988 9.99996 4.03988Z" fill="#0073E6"/>
</g>
</g>
</svg>
